<?xml version="1.0" encoding="utf-8"?>
<!-- Generator: Adobe Illustrator 16.0.3, SVG Export Plug-In . SVG Version: 6.00 Build 0)  -->
<!DOCTYPE svg PUBLIC "-//W3C//DTD SVG 1.1//EN" "http://www.w3.org/Graphics/SVG/1.1/DTD/svg11.dtd">
<svg version="1.1" id="Layer_1" xmlns="http://www.w3.org/2000/svg" xmlns:xlink="http://www.w3.org/1999/xlink" x="0px" y="0px"
	 width="3000px" height="3000px" viewBox="0 0 3000 3000" enable-background="new 0 0 3000 3000" xml:space="preserve">
<g id="Layer_1_1_">
	<g>
		<path opacity="0.5" fill="#FFFFFF" enable-background="new    " d="M1372.55,1056.63c-2.31-0.41-4.56-0.63-6.71-0.63h1.16
			C1368.91,1056,1370.76,1056.21,1372.55,1056.63z"/>
		<path opacity="0.5" fill="#FFFFFF" enable-background="new    " d="M1392,1669.3V2079c0,13.37-5.26,25.53-13.82,34.5
			c-0.67-1.35-1.57-2.75-2.68-4.18l-57.59-74.13L917,1519.12V1106c0-12.5,4.6-23.94,12.19-32.71c0.5,0.82,1.08,1.65,1.73,2.49
			l58.28,75.03L1392,1669.3z"/>
	</g>
	<g>
		<path fill="#FFFFFF" d="M1378.18,2113.5c-9.1,9.55-21.95,15.5-36.18,15.5H940.58c-13.75,0-31.9-8.82-40.33-19.68L112.39,1095.15
			l-4.46-5.73c0-0.01,0-0.01,0-0.01c-1.74-3.21-2.73-6.88-2.73-10.79c0-12.49,10.13-22.62,22.62-22.62h404.43
			c13.75,0,31.91,8.92,40.34,19.78L917,1519.12l400.91,516.07l57.59,74.13C1376.61,2110.75,1377.51,2112.15,1378.18,2113.5z"/>
	</g>
	<g>
		<path opacity="0.5" fill="#FFFFFF" enable-background="new    " d="M2225,1616.86V2079c0,13.18-5.11,25.17-13.45,34.1
			c-0.64-1.22-1.46-2.489-2.47-3.779l-57.76-74.36L1750,1518.37V1106c0-13.62,5.45-25.97,14.3-34.99c0.73,1.33,1.7,2.71,2.891,4.12
			l60.989,72.17L2225,1616.86z"/>
	</g>
	<g>
		<path fill="#FFFFFF" d="M2211.55,2113.099c-9.12,9.79-22.12,15.9-36.55,15.9h-400.84c-13.75,0-31.9-8.82-40.33-19.68L1392,1669.3
			l-402.8-518.49l-58.28-75.03c-0.65-0.84-1.23-1.67-1.73-2.49C938.35,1062.7,951.9,1056,967,1056h398.84c2.15,0,4.4,0.22,6.71,0.63
			c0,0,0,0,0.01,0c12.46,2.2,26.5,9.99,33.61,19.15L1750,1518.37l401.32,516.59l57.76,74.36c0.76,0.97,1.41,1.92,1.96,2.859
			C2211.22,2112.49,2211.39,2112.8,2211.55,2113.099z"/>
	</g>
	<g>
		<path opacity="0.5" fill="#FFFFFF" enable-background="new    " d="M2917,1457.98V1823c0,13.41-5.28,25.58-13.86,34.56
			c-0.71-1.239-1.62-2.52-2.72-3.829l-61.14-72.341L2442,1311.27V931.13c0-12.29,9.96-22.25,22.25-22.25
			c5.93,0,11.46,1.95,15.28,6.08l3.25,3.86l417.45,493.96c2.67,3.15,5.199,6.15,7.449,8.82c1.44,1.72,2.771,3.3,3.94,4.69
			c3.25,4.75,5.21,10.45,5.37,16.6v0.08c0.01,0.42,0.01,0.84,0,1.28v0.24C2917.01,1448.43,2917,1453.06,2917,1457.98z"/>
	</g>
	<g>
		<path fill="#FFFFFF" d="M2903.14,1857.559c-9.1,9.511-21.93,15.44-36.14,15.44h-400.7c-13.75,0-32.26-8.77-41.13-19.27
			L2225,1616.86L1828.18,1147.3l-60.989-72.17c-1.19-1.41-2.16-2.79-2.891-4.12c9.07-9.27,21.71-15.01,35.7-15.01h401.3
			c13.75,0,32.271,8.63,41.141,19.13L2442,1311.27l397.28,470.12l61.14,72.341C2901.52,1855.04,2902.43,1856.32,2903.14,1857.559z"
			/>
	</g>
</g>
</svg>
